HIERARCHY
ROOT root
{
	OFFSET 0.000000 0.000000 0.000000
	CHANNELS 6 Xposition Yposition Zposition Zrotation Yrotation Xrotation
	JOINT lhip
	{
		OFFSET 0.058581 -0.082280 -0.017664
		CHANNELS 3 Zrotation Yrotation Xrotation
		JOINT lknee
		{
			OFFSET 0.043451 -0.386469 0.008037
			CHANNELS 3 Zrotation Yrotation Xrotation
			JOINT lankle
			{
				OFFSET -0.014790 -0.426874 -0.037428
				CHANNELS 3 Zrotation Yrotation Xrotation
				JOINT ltoe
				{
					OFFSET 0.041054 -0.060286 0.122042
					CHANNELS 3 Zrotation Yrotation Xrotation
					End Site
					{
						OFFSET 0.000000 0.000000 0.000000
					}
				}
			}
		}
	}
	JOINT rhip
	{
		OFFSET -0.060310 -0.090513 -0.013543
		CHANNELS 3 Zrotation Yrotation Xrotation
		JOINT rknee
		{
			OFFSET -0.043257 -0.383688 -0.004843
			CHANNELS 3 Zrotation Yrotation Xrotation
			JOINT rankle
			{
				OFFSET 0.019056 -0.420046 -0.034562
				CHANNELS 3 Zrotation Yrotation Xrotation
				JOINT rtoe
				{
					OFFSET -0.034840 -0.062106 0.130323
					CHANNELS 3 Zrotation Yrotation Xrotation
					End Site
					{
						OFFSET 0.000000 0.000000 0.000000
					}
				}
			}
		}
	}
	JOINT lowerback
	{
		OFFSET 0.004439 0.124404 -0.038385
		CHANNELS 3 Zrotation Yrotation Xrotation
		JOINT upperback
		{
			OFFSET 0.004488 0.137956 0.026820
			CHANNELS 3 Zrotation Yrotation Xrotation
			JOINT chest
			{
				OFFSET -0.002265 0.056032 0.002855
				CHANNELS 3 Zrotation Yrotation Xrotation
				JOINT lowerneck
				{
					OFFSET -0.013390 0.211636 -0.033468
					CHANNELS 3 Zrotation Yrotation Xrotation
					JOINT upperneck
					{
						OFFSET 0.010113 0.088937 0.050410
						CHANNELS 3 Zrotation Yrotation Xrotation
						End Site
						{
							OFFSET 0.000000 0.000000 0.000000
						}
					}
				}
				JOINT lclavicle
				{
					OFFSET 0.071702 0.114000 -0.018898
					CHANNELS 3 Zrotation Yrotation Xrotation
					JOINT lshoulder
					{
						OFFSET 0.122921 0.045205 -0.019046
						CHANNELS 3 Zrotation Yrotation Xrotation
						JOINT lelbow
						{
							OFFSET 0.255332 -0.015649 -0.022946
							CHANNELS 3 Zrotation Yrotation Xrotation
							JOINT lwrist
							{
								OFFSET 0.265709 0.012698 -0.007375
								CHANNELS 3 Zrotation Yrotation Xrotation
								End Site
								{
									OFFSET 0.000000 0.000000 0.000000
								}
							}
						}
					}
				}
				JOINT rclavicle
				{
					OFFSET -0.082954 0.112472 -0.023707
					CHANNELS 3 Zrotation Yrotation Xrotation
					JOINT rshoulder
					{
						OFFSET -0.113228 0.046853 -0.008472
						CHANNELS 3 Zrotation Yrotation Xrotation
						JOINT relbow
						{
							OFFSET -0.260127 -0.014369 -0.031269
							CHANNELS 3 Zrotation Yrotation Xrotation
							JOINT rwrist
							{
								OFFSET -0.269108 0.006794 -0.006027
								CHANNELS 3 Zrotation Yrotation Xrotation
								End Site
								{
									OFFSET 0.000000 0.000000 0.000000
								}
							}
						}
					}
				}
			}
		}
	}
}
MOTION
Frames: 9
Frame Time: 0.033333
1.197168 0.161335 0.990063 -89.040463 2.568909 87.327735 -0.008708 -2.737995 1.795244 -3.736036 -18.152741 5.831763 7.489559 8.968897 -17.864374 0.000000 -0.000000 0.000000 4.160339 2.712442 -9.768808 0.872048 0.347791 23.797081 1.808268 -8.066034 -18.701073 0.000000 -0.000000 0.000000 -2.609297 1.191808 10.491423 3.200974 -1.149957 5.886895 0.910638 -0.974655 6.101072 6.228286 2.396988 16.102073 1.125817 -1.502565 15.936442 -20.577975 7.870672 4.676761 -63.281205 -7.158244 10.052501 12.617757 -37.766864 6.551877 3.914215 -2.133417 -15.477903 19.997087 -6.227081 4.453344 67.191872 0.652567 10.781115 -20.852544 31.166446 -3.014523 5.311861 2.143905 -11.670366 
1.195331 0.159680 0.989773 -88.598770 2.487080 87.252509 -0.111738 -2.461091 2.098917 -3.782438 -18.585039 5.573538 7.270617 8.702385 -17.940767 0.000000 -0.000000 0.000000 4.258349 2.384242 -9.780722 0.651942 0.371136 24.978737 1.785348 -8.197966 -18.983137 0.000000 -0.000000 0.000000 -2.665331 0.929097 10.200324 3.137173 -1.270607 5.659421 0.829986 -1.123829 6.053717 6.127308 2.254864 16.683531 0.929081 -1.353997 16.261537 -20.560431 7.939158 4.841376 -63.097094 -7.446002 9.846750 13.186974 -37.592362 6.426051 4.191468 -2.256421 -15.308880 20.135676 -6.297288 4.565438 67.554868 0.402110 10.922514 -20.132646 30.309037 -1.609299 5.347533 2.226275 -10.833494 
1.191734 0.157734 0.989193 -87.822036 2.284668 87.432596 -0.411626 -2.620001 2.270111 -3.687162 -18.754104 5.225299 7.473079 8.280266 -17.806664 0.000000 -0.000000 0.000000 3.943586 1.429015 -8.908721 1.011414 0.580019 23.875744 1.305920 -7.439982 -18.217821 0.000000 -0.000000 0.000000 -2.591389 1.216176 8.859048 3.160562 -1.941661 6.078025 0.716305 -1.315714 6.209902 5.948679 1.788462 17.033865 0.962062 -1.515638 16.169825 -20.568769 8.015196 4.951757 -63.226517 -7.868617 9.796780 13.767406 -37.182861 6.019365 3.835474 -1.873611 -15.334830 20.187018 -6.711747 4.756990 67.810506 0.311298 10.954747 -19.683085 29.908060 -0.551606 5.922237 2.116327 -10.507409 
1.189372 0.157151 0.988829 -87.209872 2.273687 87.652309 -0.366490 -3.007133 2.065810 -3.808310 -18.773187 5.353048 7.505850 8.134276 -17.831838 0.000000 -0.000000 0.000000 3.819238 0.963878 -7.904102 1.207517 0.389313 21.944306 1.063949 -7.631390 -18.108590 0.000000 -0.000000 0.000000 -2.506906 1.342410 8.079048 3.173626 -2.184121 5.826763 0.746035 -1.380383 6.466768 5.798383 1.819854 16.791023 1.053590 -1.349607 15.970030 -20.571919 8.391956 4.977306 -63.397442 -8.097106 9.854272 14.040604 -37.314930 5.553106 4.775988 -1.728865 -15.909800 20.070624 -7.097572 4.855545 68.190575 0.035671 10.999839 -19.450372 29.435705 -0.390733 5.465243 2.151335 -10.906542 
1.188240 0.157371 0.989322 -87.215696 2.356756 87.735536 -0.251198 -2.978974 1.957675 -3.882275 -18.880417 5.530020 7.527682 8.229037 -17.863014 0.000000 -0.000000 0.000000 3.822554 0.349189 -7.067980 1.451914 0.559418 20.275609 0.860415 -7.316428 -17.084457 0.000000 -0.000000 0.000000 -2.449844 1.530020 8.440126 3.188077 -1.855083 4.824504 0.946657 -1.440608 6.180283 5.696956 1.326518 16.877286 0.968288 -1.293445 16.329503 -20.720013 9.004325 4.970509 -63.294267 -7.961833 9.629915 13.545316 -37.536435 5.866058 4.707978 -1.835775 -16.184854 20.234362 -7.397472 5.059184 67.814692 -0.158186 10.781700 -18.920199 28.786635 -0.157759 5.472007 2.353670 -10.473345 
1.185986 0.157422 0.989363 -87.380377 2.350801 87.637341 -0.253806 -2.822514 2.314977 -3.782979 -18.858944 5.305498 7.582642 8.204624 -17.806292 0.000000 -0.000000 0.000000 3.456916 -0.380495 -5.971142 1.960884 0.801871 18.689201 1.167365 -6.520499 -16.456866 0.000000 -0.000000 0.000000 -2.221899 1.966549 7.850948 3.137351 -1.876943 5.107754 0.870371 -1.334253 6.337984 5.660792 1.231889 16.414338 1.063232 -1.457272 15.941755 -20.668527 9.127875 4.898254 -63.384360 -7.814081 9.737518 13.322673 -37.747969 5.961827 5.413259 -1.829359 -16.269565 20.406170 -7.443901 5.050278 67.648392 0.072396 10.545488 -18.778004 28.246332 -0.485912 4.461685 2.047392 -9.932303 
1.184833 0.158395 0.989186 -87.425689 2.566185 87.885840 0.068907 -2.748795 2.055048 -3.785763 -18.900125 5.338092 7.863788 8.245840 -17.887605 0.000000 -0.000000 0.000000 3.376067 -0.977995 -5.366712 2.370040 0.653719 17.145163 1.397189 -6.117826 -15.705706 0.000000 -0.000000 0.000000 -1.924960 2.132728 7.263056 3.174333 -1.960677 5.101064 0.900030 -1.185845 6.085239 5.549095 0.589904 16.702123 1.316233 -1.648213 15.972686 -20.624148 9.214725 5.323327 -63.683511 -7.658168 9.593567 13.355359 -37.478158 6.205599 4.987700 -1.747504 -16.356994 20.137965 -7.380545 5.385613 67.629829 0.267353 10.204206 -18.704647 28.052912 -0.040694 4.686438 1.807034 -9.627715 
1.185266 0.160439 0.989817 -87.871540 2.692010 87.659805 0.218511 -2.813996 2.168766 -3.697590 -18.675389 5.587205 7.763442 8.592528 -17.801393 0.000000 -0.000000 0.000000 3.664423 -0.644906 -4.351781 2.392480 0.772443 15.611506 1.294595 -6.195520 -15.452380 0.000000 -0.000000 0.000000 -1.981682 2.192119 7.929387 3.223426 -1.538909 4.705179 1.121564 -1.037172 5.794022 5.562959 0.435997 16.785212 1.271347 -1.622846 15.704458 -20.504570 9.157861 5.254972 -63.950779 -7.212344 9.459586 12.834885 -37.015196 7.068600 4.750784 -1.708731 -15.903876 20.006873 -7.244424 5.354468 67.461900 0.307499 9.986011 -18.982146 28.483034 -0.364578 3.982628 1.753029 -9.573061 
1.182521 0.162677 0.989020 -87.187314 2.311111 88.029948 0.079922 -3.061397 1.792655 -3.824562 -18.600946 5.847155 7.779095 8.144299 -17.884948 0.000000 -0.000000 0.000000 3.281282 -1.677946 -3.725234 2.533893 0.791589 14.257188 1.221050 -5.896907 -15.191241 0.000000 -0.000000 0.000000 -2.456677 2.821260 6.480851 3.310499 -2.429251 5.364628 1.173976 -1.476814 6.236803 5.706013 0.732417 16.074769 1.106444 -1.604224 15.345290 -20.503869 9.239506 5.222130 -63.944077 -7.238540 9.613457 12.329302 -36.092605 7.573631 4.693357 -1.494949 -15.771167 20.054150 -7.571504 5.150666 67.239904 0.630302 10.259012 -19.312700 29.414231 -0.482866 4.184979 1.562005 -10.107930 
